<svg xmlns="http://www.w3.org/2000/svg"  width="100px" height="50px" viewBox="0 0 100 50.27">
  <path fill="#fff" d="M4.23 8.53l-4.23 0 0 -5.17 4.23 0 0 5.17zm0 40.8l-4.23 0 0 -34.48 4.23 0 0 34.48zm45.5 -23.26c0,7.35 -1.52,13.09 -4.57,17.21 -3.45,4.66 -8.74,6.99 -15.86,6.99 -6.36,0 -11.45,-2.71 -15.25,-8.13 -3.36,-4.84 -5.04,-10.58 -5.04,-17.21 0,-6.45 1.79,-12.09 5.37,-16.93 3.99,-5.33 9.1,-8 15.32,-8 8.34,0 14.14,4.1 17.41,12.3l-5.78 0c-2.87,-5.11 -6.85,-7.66 -11.96,-7.66 -3.45,0 -6.45,1.16 -9.01,3.49 -2.33,2.11 -4.07,4.89 -5.24,8.33 -0.85,2.56 -1.28,5.36 -1.28,8.41 0,5.24 1.26,9.85 3.77,13.84 2.87,4.61 6.79,6.92 11.76,6.92 4.88,0 8.51,-1.34 10.88,-4.03 2.16,-2.38 3.52,-6.07 4.11,-11.09l-17.95 0 0 -4.44 23.32 0zm10.22 23.26l-4.77 0 0 -48.39 4.77 0 0 48.39zm40.05 -24.2c0,7.17 -1.7,12.91 -5.11,17.21 -3.67,4.66 -9.02,6.99 -16.06,6.99l-11.49 0 0 -48.39 12.23 0c6.63,0 11.78,2.44 15.46,7.33 3.31,4.39 4.97,10.01 4.97,16.86zm-4.91 -0.03c0,-5.68 -1.25,-10.26 -3.76,-13.75 -2.87,-3.98 -7.03,-5.97 -12.5,-5.97l-6.72 0 0 39.51 7.26 0c5.42,0 9.5,-2.04 12.23,-6.1 2.33,-3.45 3.49,-8.01 3.49,-13.69z"/>
</svg>
